<?xml version="1.0" encoding="iso-8859-1"?>
<!-- Generator: Adobe Illustrator 21.0.0, SVG Export Plug-In . SVG Version: 6.00 Build 0)  -->
<svg xmlns="http://www.w3.org/2000/svg" xmlns:xlink="http://www.w3.org/1999/xlink" version="1.1" id="Capa_1" x="0px" y="0px" viewBox="0 0 512 512" style="enable-background:new 0 0 512 512;" xml:space="preserve" width="512" height="512">
<g>
	<path style="fill:#D8D5ED;" d="M381.167,512H6c-3.314,0-6-2.686-6-6V6c0-3.314,2.686-6,6-6h375.167   c17.069,0,30.905,13.837,30.905,30.905v450.189C412.073,498.163,398.236,512,381.167,512z"/>
	<path style="fill:#BEBADE;" d="M381.167,0h-30.905c17.069,0,30.905,13.837,30.905,30.905v450.189   c0,17.069-13.837,30.905-30.905,30.905h30.905c17.069,0,30.905-13.837,30.905-30.905V30.905C412.073,13.837,398.236,0,381.167,0z"/>
	<path style="fill:#FF2C5C;" d="M61.811,512H6c-3.314,0-6-2.686-6-6V6c0-3.314,2.686-6,6-6h55.811V512z"/>
	<rect x="30.905" style="fill:#E62753;" width="30.905" height="512"/>
	<path style="fill:#FF2C5C;" d="M343.565,200.37H135.469c-2.276,0-4.121-1.845-4.121-4.121v-63.871c0-2.276,1.845-4.121,4.121-4.121   h208.097c2.276,0,4.121,1.845,4.121,4.121v63.871C347.686,198.525,345.841,200.37,343.565,200.37z"/>
	<path style="fill:#EBAD88;" d="M255.3,405.273l-11.806,11.816l-86.195,24.106c-1.267,0.34-2.297,0.093-2.936-0.546   c-0.639-0.639-0.876-1.669-0.546-2.926l24.117-86.195l11.806-11.816L255.3,405.273z"/>
	<path style="fill:#E89776;" d="M221.636,395.233l-67.272,45.419c0.637,0.637,1.667,0.88,2.932,0.543l86.194-24.108L221.636,395.233   z"/>
	<path style="fill:#363636;" d="M189.742,432.116l-32.445,9.077c-2.527,0.663-4.138-0.948-3.475-3.475l9.077-32.445L189.742,432.116   z"/>
	<g>
		
			<rect x="300.244" y="56.232" transform="matrix(0.7071 0.7071 -0.7071 0.7071 259.0683 -154.222)" style="fill:#FFD659;" width="30.905" height="358.76"/>
		
			<rect x="322.097" y="78.086" transform="matrix(0.7071 0.7071 -0.7071 0.7071 280.9218 -163.274)" style="fill:#FFBD54;" width="30.905" height="358.76"/>
		
			<rect x="343.951" y="99.939" transform="matrix(0.7071 0.7071 -0.7071 0.7071 302.7752 -172.326)" style="fill:#FFA954;" width="30.905" height="358.76"/>
	</g>
	<path style="fill:#4FC6F5;" d="M483.877,176.699l-65.56-65.56l23.284-23.284c6.451-6.451,16.911-6.451,23.362,0l42.198,42.198   c6.451,6.451,6.451,16.911,0,23.362L483.877,176.699z"/>
	<path style="fill:#3BB3E3;" d="M507.162,130.052l-21.853-21.853c6.451,6.451,6.451,16.911,0,23.362l-23.284,23.284l21.853,21.853   l23.284-23.284C513.613,146.963,513.613,136.503,507.162,130.052z"/>
</g>















</svg>
